# Blender v2.93.1 OBJ File: 'skybox.blend'
# www.blender.org
mtllib skybox.mtl
o Cube
v 1.000000 1.000000 -1.000000
v 1.000000 -1.000000 -1.000000
v 1.000000 1.000000 1.000000
v 1.000000 -1.000000 1.000000
v -1.000000 1.000000 -1.000000
v -1.000000 -1.000000 -1.000000
v -1.000000 1.000000 1.000000
v -1.000000 -1.000000 1.000000
vt 0.000000 1.000000
vt -0.000000 0.000000
vt 1.000000 0.000000
vt 1.000000 1.000000
vt 0.000000 1.000000
vt -0.000000 0.000000
vt 1.000000 0.000000
vt 1.000000 1.000000
vt 0.000000 1.000000
vt 0.000000 0.000000
vt 1.000000 0.000000
vt 1.000000 1.000000
vt 0.000000 1.000000
vt 0.000000 0.000000
vt 1.000000 0.000000
vt 1.000000 1.000000
vt 1.000000 0.000000
vt 1.000000 1.000000
vt 0.000000 1.000000
vt 0.000000 0.000000
vn 0.0000 1.0000 0.0000
vn 0.0000 -1.0000 0.0000
vn 1.0000 0.0000 0.0000
vn -1.0000 0.0000 0.0000
vn 0.0000 0.0000 -1.0000
vn 0.0000 0.0000 1.0000
usemtl top
s off
f 1/1/1 5/2/1 7/3/1 3/4/1
usemtl bottom
f 6/5/2 2/6/2 4/7/2 8/8/2
usemtl front
f 2/9/3 1/10/3 3/11/3 4/12/3
usemtl back
f 8/13/4 7/14/4 5/15/4 6/16/4
usemtl left
f 6/5/5 5/2/5 1/17/5 2/18/5
usemtl right
f 4/19/6 3/20/6 7/3/6 8/8/6
