# Blender v2.93.1 OBJ File: 'cube_grass_corner_bottom.blend'
# www.blender.org
mtllib cube_grass_corner_bottom.mtl
o Cube_Grass_CornerBottom_Tall_Cube.387
v 1.000001 -1.000000 -0.999999
v -1.000000 -0.873585 0.873584
v -0.873585 -1.000000 0.873584
v -0.873585 -0.873585 0.999999
v -0.962974 -0.962974 0.873584
v -0.946571 -0.946571 0.946570
v -0.873585 -0.962974 0.962973
v -0.962974 -0.873585 0.962973
v 0.999999 -1.000000 0.873585
v 0.999999 -0.873585 1.000000
v 0.999999 -0.962974 0.962974
v -0.999999 -0.873585 -1.000001
v -0.873584 -1.000000 -1.000001
v -0.962973 -0.962974 -1.000001
v -1.000000 0.623989 0.873584
v -1.000000 0.281256 0.873584
v -1.000000 -0.024298 0.873584
v -1.000000 -0.327668 0.873584
v -1.000000 -0.623989 0.873584
v -0.962974 -0.623989 0.962973
v -0.962974 -0.327668 0.962973
v -0.962974 -0.024298 0.962973
v -0.962974 0.281256 0.962973
v -0.962974 0.623989 0.962973
v -0.873585 -0.623989 0.999999
v -0.873585 -0.327668 0.999999
v -0.873585 -0.024298 0.999999
v -0.873585 0.281256 0.999999
v -0.873585 0.623989 0.999999
v 0.999999 -0.623989 1.000000
v 0.999999 -0.327668 1.000000
v 0.999999 -0.024298 1.000000
v 0.999999 0.281256 1.000000
v 0.999999 0.623989 1.000000
v -0.999999 0.623989 -1.000001
v -0.999999 0.281256 -1.000001
v -0.999999 -0.024298 -1.000001
v -0.999999 -0.327668 -1.000001
v -0.999999 -0.623989 -1.000001
v -0.999999 1.000000 -1.000001
v 0.999999 1.000000 1.000000
v -0.873585 1.000000 0.999999
v -0.962974 1.000000 0.962973
v -1.000000 1.000000 0.873584
vt 0.512483 0.094779
vt 0.488543 0.095029
vt 0.488543 0.000251
vt 0.512483 0.000000
vt 0.952591 0.594779
vt 0.488543 0.599508
vt 0.488543 0.504730
vt 0.952591 0.500000
vt 0.976530 0.595029
vt 0.976530 0.500251
vt 0.976530 0.099508
vt 0.976530 0.004730
vt 0.000000 0.488776
vt 0.000000 0.023861
vt 0.464636 0.039969
vt 0.464636 0.504884
vt 0.512483 0.472262
vt 0.510683 0.495270
vt 0.491809 0.491162
vt 0.488543 0.472513
vt 0.466375 0.016108
vt 0.485246 0.020061
vt 0.488543 0.039057
vt 0.952591 0.972262
vt 0.976530 0.972513
vt 0.973265 0.991162
vt 0.954391 0.995270
vt 0.488543 0.976992
vt 0.490343 1.000000
vt 0.001740 0.000000
vt 0.976530 0.476992
vt 0.974730 0.500000
vt 0.488543 0.503972
vt 0.976530 0.834907
vt 0.952591 0.834657
vt 0.952591 0.758188
vt 0.976530 0.758439
vt 0.512483 0.258188
vt 0.512483 0.334657
vt 0.488543 0.334907
vt 0.488543 0.258439
vt 0.976530 0.262918
vt 0.976530 0.339386
vt 0.488543 0.839386
vt 0.488543 0.762918
vt 0.952591 0.681169
vt 0.488543 0.685899
vt 0.952591 0.909348
vt 0.488543 0.914078
vt 0.976530 0.681420
vt 0.976530 0.909599
vt 0.512483 0.181169
vt 0.488543 0.181420
vt 0.512483 0.409348
vt 0.488543 0.409599
vt 0.976530 0.185899
vt 0.976530 0.414078
vn -0.9808 0.0000 0.1951
vn -0.9239 0.0000 0.3827
vn -0.1951 0.0000 0.9808
vn -0.0000 0.0000 1.0000
vn -0.3827 0.0000 0.9239
vn -1.0000 0.0000 -0.0000
vn 0.0000 -1.0000 0.0000
vn -0.0000 -0.9808 0.1951
vn -0.1794 -0.9673 0.1794
vn -0.1951 -0.9808 -0.0000
vn -0.9673 -0.1794 0.1794
vn -0.9194 -0.3600 0.1585
vn -0.8881 -0.3251 0.3251
vn -0.9194 -0.1585 0.3600
vn -0.1585 -0.9194 0.3600
vn -0.3251 -0.8881 0.3251
vn -0.3600 -0.9194 0.1585
vn -0.1794 -0.1794 0.9673
vn -0.3600 -0.1585 0.9194
vn -0.3251 -0.3251 0.8881
vn -0.1585 -0.3600 0.9194
vn -0.0000 -0.1951 0.9808
vn -0.0000 -0.3827 0.9239
vn -0.0000 -0.9239 0.3827
vn -0.9808 -0.1951 -0.0000
vn -0.9239 -0.3827 -0.0000
vn -0.3827 -0.9239 -0.0000
usemtl Dirt_1
s 1
f 15/1/1 24/2/2 43/3/2 44/4/1
f 29/5/3 34/6/4 41/7/4 42/8/3
f 24/9/5 29/5/3 42/8/3 43/10/5
f 35/11/6 15/1/1 44/4/1 40/12/6
f 1/13/7 9/14/8 3/15/9 13/16/10
f 2/17/11 5/18/12 6/19/13 8/20/14
f 3/15/9 7/21/15 6/22/16 5/23/17
f 4/24/18 8/25/19 6/26/20 7/27/21
f 10/28/22 4/24/18 7/27/21 11/29/23
f 11/30/24 7/21/15 3/15/9 9/14/8
f 2/17/11 12/31/25 14/32/26 5/18/12
f 5/23/17 14/33/27 13/16/10 3/15/9
f 21/34/5 26/35/3 27/36/3 22/37/5
f 17/38/1 18/39/1 21/40/2 22/41/2
f 37/42/6 38/43/6 18/39/1 17/38/1
f 26/35/3 31/44/4 32/45/4 27/36/3
usemtl Dirt_2
f 29/5/3 28/46/3 33/47/4 34/6/4
f 26/35/3 25/48/3 30/49/4 31/44/4
f 24/9/5 23/50/5 28/46/3 29/5/3
f 21/34/5 20/51/5 25/48/3 26/35/3
f 15/1/1 16/52/1 23/53/2 24/2/2
f 18/39/1 19/54/1 20/55/2 21/40/2
f 35/11/6 36/56/6 16/52/1 15/1/1
f 38/43/6 39/57/6 19/54/1 18/39/1
usemtl Dirt_3
f 39/57/6 12/31/25 2/17/11 19/54/1
f 19/54/1 2/17/11 8/20/14 20/55/2
f 20/51/5 8/25/19 4/24/18 25/48/3
f 25/48/3 4/24/18 10/28/22 30/49/4
f 28/46/3 27/36/3 32/45/4 33/47/4
f 23/50/5 22/37/5 27/36/3 28/46/3
f 16/52/1 17/38/1 22/41/2 23/53/2
f 36/56/6 37/42/6 17/38/1 16/52/1
