# Blender v2.93.1 OBJ File: 'cube_grass_corner.blend'
# www.blender.org
mtllib cube_grass_corner.mtl
o Cube_Grass_Corner_Tall_Cube.383
v -0.848221 0.995956 -1.000001
v -1.099940 0.566632 -1.000001
v -1.099940 0.801033 -1.000001
v -1.020232 0.947225 -1.000001
v -0.355843 0.995956 -1.000000
v -1.020232 0.537025 -1.000001
v -1.116720 0.644971 -1.000001
v 0.999999 0.995956 -0.999999
v -0.848864 0.995909 0.848270
v -1.099940 0.801033 0.879508
v -0.872515 0.801033 1.099939
v -0.844490 0.527155 0.848270
v -1.099940 0.566632 0.879508
v -0.872515 0.566632 1.099939
v -1.116719 0.644971 0.895094
v -1.019855 0.947920 0.856113
v -1.054234 0.801033 1.044831
v -1.099940 0.801033 0.381801
v -0.888305 0.644971 1.116718
v -0.857709 0.947920 1.020243
v -0.848864 0.995909 0.355917
v -0.367594 0.801033 1.099939
v -0.346529 0.995956 0.848220
v -1.030449 0.537025 0.856113
v -0.849720 0.537025 1.020243
v -0.891754 0.527155 0.355917
v -0.346529 0.527155 0.848220
v -1.054234 0.566632 1.044831
v -1.099940 0.566632 0.381801
v -0.367594 0.566632 1.099939
v -1.070765 0.644971 1.061312
v -0.990502 0.910018 0.984115
v -1.116719 0.644971 0.394693
v -1.020520 0.947920 0.362438
v -0.380791 0.644971 1.116718
v -0.349131 0.947225 1.020231
v -0.350527 0.995956 0.355842
v -1.001096 0.544701 0.984115
v -1.031114 0.537025 0.362438
v -0.349131 0.537025 1.020231
v -0.999999 -1.000000 -1.000001
v 0.999999 -1.000000 1.000000
v -0.962974 -1.000000 0.962973
v -0.873585 -1.000000 0.999999
v -1.000000 -1.000000 0.873584
v -1.000000 0.623989 0.873584
v -1.000000 0.281256 0.873584
v -1.000000 -0.024298 0.873584
v -1.000000 -0.327668 0.873584
v -1.000000 -0.623989 0.873584
v -0.962974 -0.623989 0.962973
v -0.962974 -0.327668 0.962973
v -0.962974 -0.024298 0.962973
v -0.962974 0.281256 0.962973
v -0.962974 0.623989 0.962973
v -0.873585 -0.623989 0.999999
v -0.873585 -0.327668 0.999999
v -0.873585 -0.024298 0.999999
v -0.873585 0.281256 0.999999
v -0.873585 0.623989 0.999999
v 0.999999 -0.623989 1.000000
v 0.999999 -0.327668 1.000000
v 0.999999 -0.024298 1.000000
v 0.999999 0.281256 1.000000
v 0.999999 0.623989 1.000000
v -0.999999 0.623989 -1.000001
v -0.999999 0.281256 -1.000001
v -0.999999 -0.024298 -1.000001
v -0.999999 -0.327668 -1.000001
v -0.999999 -0.623989 -1.000001
v 0.999999 0.801033 1.099940
v 0.999999 0.527155 0.848221
v 0.999999 0.995956 0.848221
v 0.999999 0.566632 1.099940
v 0.999999 0.947225 1.020231
v 0.999999 0.995956 0.355842
v 0.999999 0.537025 1.020231
v 0.999999 0.644971 1.116719
v -0.891753 0.527155 -1.000000
vt 0.269566 0.249782
vt 0.346405 0.237619
vt 0.348457 0.334936
vt 0.250764 0.324277
vt 0.219791 0.313745
vt 0.246445 0.244853
vt 0.250903 0.229732
vt 0.266865 0.226197
vt 0.339320 0.205861
vt 0.230032 0.233454
vt 0.192065 0.298808
vt 0.166242 0.282938
vt 0.216354 0.219806
vt 0.231022 0.207762
vt 0.240999 0.218949
vt 0.641471 0.655038
vt 0.277829 0.627075
vt 0.641471 0.290773
vt 0.585535 0.068953
vt 0.313925 0.150562
vt 0.309581 0.135443
vt 0.580650 0.052780
vt 0.604515 0.136161
vt 0.614202 0.173824
vt 0.258091 0.208446
vt 0.245997 0.193366
vt 0.327229 0.177295
vt 0.187657 0.155800
vt 0.287614 0.084169
vt 0.305233 0.118540
vt 0.230818 0.173037
vt 0.217876 0.194321
vt 0.198172 0.203439
vt 0.136262 0.272293
vt 0.109201 0.256261
vt 0.207435 0.212373
vt 0.151345 0.277025
vt 0.225426 0.201493
vt 0.594969 0.101416
vt 0.575425 0.035569
vt 0.239805 0.183740
vt 0.564671 0.000118
vt 0.125106 0.577354
vt 0.090827 0.564748
vt 0.162305 0.590346
vt 0.042939 0.546088
vt 0.026033 0.539320
vt 0.058843 0.552431
vt 0.000118 0.528954
vt 0.418219 0.857214
vt 0.397688 0.857214
vt 0.397688 0.792840
vt 0.418219 0.792840
vt 0.438750 0.792840
vt 0.438750 0.857214
vt 0.836319 0.792840
vt 0.836319 0.857215
vt 0.000119 0.857214
vt 0.000119 0.792840
vt 0.397688 0.655275
vt 0.397688 0.728002
vt 0.000119 0.728002
vt 0.000118 0.655275
vt 0.397688 0.920093
vt 0.000119 0.920093
vt 0.418219 0.655275
vt 0.418219 0.728002
vt 0.418219 0.920093
vt 0.438750 0.655275
vt 0.438750 0.728002
vt 0.438750 0.920093
vt 0.836319 0.655275
vt 0.836319 0.728002
vt 0.836319 0.920093
vt 0.418219 0.999881
vt 0.397688 0.999881
vt 0.000119 0.999881
vt 0.836319 0.999881
vt 0.438750 0.999881
vn -0.1373 0.9810 0.1372
vn 0.0001 0.9906 0.1371
vn -0.0000 1.0000 0.0000
vn -0.1365 0.9906 -0.0000
vn -0.2703 0.9628 -0.0001
vn -0.6074 0.7821 0.1394
vn -0.5037 0.7087 0.4940
vn -0.1475 0.7788 0.6097
vn 0.0003 0.9624 0.2716
vn -0.9378 0.3182 0.1386
vn -0.9547 0.2977 0.0001
vn -0.9987 -0.0519 -0.0000
vn -0.9879 -0.0575 0.1443
vn -0.9622 -0.0576 0.2660
vn -0.9084 0.3149 0.2749
vn -0.8788 0.4772 0.0002
vn -0.0000 -0.0519 0.9987
vn -0.0000 -0.2094 0.9778
vn -0.0000 0.9621 0.2726
vn -0.0000 0.9905 0.1376
vn -0.1473 0.3154 0.9374
vn -0.2975 0.3099 0.9030
vn -0.2899 -0.0586 0.9553
vn -0.1575 -0.0579 0.9858
vn 0.0001 0.2982 0.9545
vn 0.0002 0.4783 0.8782
vn -0.0384 -0.9984 0.0413
vn 0.0000 -0.9984 0.0573
vn 0.0000 -0.9788 0.2050
vn -0.0376 -0.9785 0.2029
vn -0.1665 -0.9737 0.1557
vn -0.2234 -0.9739 0.0403
vn -0.2269 -0.9739 0.0003
vn -0.0670 -0.9978 0.0013
vn -0.9661 -0.2302 0.1170
vn -0.9778 -0.2094 0.0000
vn -0.3541 -0.9333 0.0602
vn -0.3839 -0.9234 -0.0005
vn -0.2067 -0.9558 0.2089
vn -0.9330 -0.2511 0.2579
vn -0.0000 0.2985 0.9544
vn -0.0000 -0.9374 0.3482
vn -0.1277 -0.2321 0.9643
vn -0.2808 -0.2544 0.9254
vn -0.0557 -0.9461 0.3191
vn -0.0000 0.4787 0.8780
vn -0.8788 0.4771 -0.0002
vn -0.9547 0.2977 -0.0001
vn -0.1367 0.9906 -0.0002
vn -0.2709 0.9626 -0.0003
vn -0.3705 -0.9288 -0.0015
vn -0.2239 -0.9746 -0.0009
vn -0.0735 -0.9973 -0.0003
vn -0.3827 0.0000 0.9239
vn -0.1951 0.0000 0.9808
vn -0.9808 0.0000 0.1951
vn -0.9239 0.0000 0.3827
vn -1.0000 0.0000 -0.0000
vn -0.0000 0.0000 1.0000
usemtl Green_Light
s 1
f 9/1/1 23/2/2 37/3/3 21/4/4
f 9/1/1 21/4/4 34/5/5 16/6/6
f 9/1/1 16/6/6 32/7/7 20/8/8
f 9/1/1 20/8/8 36/9/9 23/2/2
f 10/10/10 18/11/11 33/12/12 15/13/13
f 10/10/10 15/13/13 31/14/14 17/15/15
f 10/10/10 17/15/15 32/7/7 16/6/6
f 10/10/10 16/6/6 34/5/16 18/11/11
f 8/16/3 5/17/3 37/3/3 76/18/3
f 78/19/17 35/20/17 30/21/18 74/22/18
f 75/23/19 73/24/20 23/2/2 36/9/9
f 11/25/21 17/15/22 31/14/23 19/26/24
f 11/25/21 19/26/24 35/20/17 22/27/25
f 11/25/21 22/27/25 36/9/26 20/8/8
f 11/25/21 20/8/8 32/7/7 17/15/22
f 12/28/27 27/29/28 40/30/29 25/31/30
f 12/28/27 25/31/30 38/32/31 24/33/32
f 12/28/27 24/33/32 39/34/33 26/35/34
f 13/36/35 15/13/13 33/12/12 29/37/36
f 13/36/37 29/37/38 39/34/33 24/33/32
f 13/36/37 24/33/32 38/32/31 28/38/39
f 13/36/35 28/38/40 31/14/14 15/13/13
f 71/39/41 22/27/25 35/20/17 78/19/17
f 77/40/29 74/22/42 30/21/42 40/30/29
f 14/41/43 19/26/24 31/14/23 28/38/44
f 14/41/45 28/38/39 38/32/31 25/31/30
f 14/41/45 25/31/30 40/30/29 30/21/42
f 14/41/43 30/21/18 35/20/17 19/26/24
f 77/40/29 40/30/29 27/29/28 72/42/28
f 75/23/46 36/9/26 22/27/25 71/39/41
f 23/2/2 73/24/20 76/18/3 37/3/3
f 34/5/16 4/43/47 3/44/48 18/11/11
f 34/5/5 21/4/4 1/45/49 4/43/50
f 39/34/33 29/37/38 2/46/51 6/47/52
f 18/11/11 3/44/48 7/48/12 33/12/12
f 33/12/12 7/48/12 2/46/36 29/37/36
f 39/34/33 6/47/52 79/49/53 26/35/34
f 37/3/3 5/17/3 1/45/49 21/4/4
usemtl Dirt_1
f 52/50/54 57/51/55 58/52/55 53/53/54
f 48/54/56 49/55/56 52/50/57 53/53/57
f 68/56/58 69/57/58 49/55/56 48/54/56
f 57/51/55 62/58/59 63/59/59 58/52/55
usemtl Dirt_2
f 60/60/55 59/61/55 64/62/59 65/63/59
f 57/51/55 56/64/55 61/65/59 62/58/59
f 55/66/54 54/67/54 59/61/55 60/60/55
f 52/50/54 51/68/54 56/64/55 57/51/55
f 46/69/56 47/70/56 54/67/57 55/66/57
f 49/55/56 50/71/56 51/68/57 52/50/57
f 66/72/58 67/73/58 47/70/56 46/69/56
f 69/57/58 70/74/58 50/71/56 49/55/56
usemtl Dirt_3
f 43/75/54 44/76/55 56/64/55 51/68/54
f 56/64/55 44/76/55 42/77/59 61/65/59
f 41/78/58 45/79/56 50/71/56 70/74/58
f 59/61/55 58/52/55 63/59/59 64/62/59
f 54/67/54 53/53/54 58/52/55 59/61/55
f 47/70/56 48/54/56 53/53/57 54/67/57
f 67/73/58 68/56/58 48/54/56 47/70/56
f 50/71/56 45/79/56 43/75/57 51/68/57
