# Blender v2.93.1 OBJ File: 'cube_grass_side_bottom.blend'
# www.blender.org
mtllib cube_grass_side_bottom.mtl
o Cube_Grass_SideBottom_Tall_Cube.388
v 1.000000 -1.000000 -1.000000
v -1.000000 -1.000000 -1.000000
v 1.000000 -0.873585 1.000000
v 1.000000 -1.000000 0.873585
v 1.000000 -0.962974 0.962974
v -1.000000 -1.000000 0.873585
v -1.000000 -0.873585 1.000000
v -1.000000 -0.962974 0.962974
v -1.000000 -0.623989 1.000000
v -1.000000 -0.327668 1.000000
v -1.000000 -0.024298 1.000000
v -1.000000 0.281256 1.000000
v -1.000000 0.623989 1.000000
v 1.000000 0.623989 1.000000
v 1.000000 0.281256 1.000000
v 1.000000 -0.024298 1.000000
v 1.000000 -0.327668 1.000000
v 1.000000 -0.623989 1.000000
v 1.000000 1.000000 1.000000
v -1.000000 1.000000 1.000000
vt 1.000000 0.513544
vt 0.528160 0.513544
vt 0.528160 0.000000
vt 1.000000 0.000000
vt 0.480351 0.513544
vt 0.480351 0.000000
vt 0.503793 0.000000
vt 0.503793 0.513544
vt 0.340389 0.000000
vt 0.340389 0.513544
vt 0.262610 0.513544
vt 0.262610 0.000000
vt 0.096402 0.000000
vt 0.096402 0.513544
vt 0.000000 0.513544
vt 0.000000 0.000000
vt 0.184272 0.000000
vt 0.184272 0.513544
vt 0.416359 0.000000
vt 0.416359 0.513544
vn 0.0000 -1.0000 0.0000
vn 0.0000 -0.9808 0.1951
vn 0.0000 -0.1951 0.9808
vn 0.0000 -0.3827 0.9239
vn 0.0000 -0.9239 0.3827
vn 0.0000 0.0000 1.0000
usemtl Dirt_1
s 1
f 1/1/1 4/2/2 6/3/2 2/4/1
f 3/5/3 7/6/3 8/7/4 5/8/4
f 5/8/5 8/7/5 6/3/2 4/2/2
f 10/9/6 17/10/6 16/11/6 11/12/6
f 13/13/6 14/14/6 19/15/6 20/16/6
usemtl Dirt_2
f 13/13/6 12/17/6 15/18/6 14/14/6
f 10/9/6 9/19/6 18/20/6 17/10/6
usemtl Dirt_3
f 9/19/6 7/6/3 3/5/3 18/20/6
f 12/17/6 11/12/6 16/11/6 15/18/6
