# Blender v2.93.1 OBJ File: 'cube_grass_side_single.blend'
# www.blender.org
mtllib cube_grass_side_single.mtl
o Cube_Grass_Side_Cube.277
v 1.000000 -1.000000 -1.000000
v -1.000000 -1.000000 -1.000000
v 1.000000 -0.873585 1.000000
v 1.000000 -1.000000 0.873585
v 1.000000 -0.962974 0.962974
v -1.000000 -1.000000 0.873585
v -1.000000 -0.873585 1.000000
v -1.000000 -0.962974 0.962974
v -1.000000 -0.623989 1.000000
v -1.000000 -0.327668 1.000000
v -1.000000 -0.024298 1.000000
v -1.000000 0.281256 1.000000
v -1.000000 0.623989 1.000000
v 1.000000 0.623989 1.000000
v 1.000000 0.281256 1.000000
v 1.000000 -0.024298 1.000000
v 1.000000 -0.327668 1.000000
v 1.000000 -0.623989 1.000000
v -1.000000 0.801033 1.099939
v -1.000000 0.527155 0.848220
v -1.000000 0.995956 0.848220
v -1.000000 0.566632 1.099939
v -1.000000 0.947225 1.020231
v -1.000000 0.995956 0.355842
v -1.000000 0.537025 1.020231
v -1.000000 0.644971 1.116719
v 1.000000 0.995956 0.848220
v 1.000000 0.566632 1.099939
v 1.000000 0.801033 1.099939
v 1.000000 0.527155 0.848220
v 1.000000 0.947225 1.020231
v 1.000000 0.995956 0.355842
v 1.000000 0.537025 1.020231
v 1.000000 0.644971 1.116719
v -1.000000 0.995956 -1.000000
v 1.000000 0.995956 -1.000000
vt 0.893131 0.995967
vt 0.893131 0.497983
vt 0.929517 0.497983
vt 0.929517 0.995967
vt 0.020921 1.000000
vt 0.020921 0.502016
vt 0.063375 0.502016
vt 0.063375 1.000000
vt 0.000000 1.000000
vt 0.000000 0.502016
vt 0.968372 0.497983
vt 0.968372 0.995967
vt 0.497984 0.000000
vt 0.497984 0.043761
vt 0.000000 0.043761
vt 0.000000 0.000000
vt 0.987881 0.497983
vt 0.987881 0.995967
vt 0.497984 0.502016
vt 0.000000 0.502016
vt 0.000000 0.165843
vt 0.497984 0.165843
vt 0.978710 0.497984
vt 0.521635 0.497984
vt 0.521635 0.000000
vt 0.978710 0.000000
vt 0.870867 0.995967
vt 0.870867 0.497984
vt 0.893131 0.497984
vt 0.893131 0.995967
vt 0.497984 0.497984
vt 0.497984 0.000000
vt 0.734939 0.497984
vt 0.734939 0.995967
vt 0.659402 0.995967
vt 0.659402 0.497984
vt 0.497984 0.497984
vt 0.583321 0.497984
vt 0.583321 0.995967
vt 0.497984 0.995967
vt 0.808720 0.497984
vt 0.808720 0.995967
vn 0.0000 0.4787 0.8780
vn 0.0000 0.2985 0.9544
vn 0.0000 -0.9788 0.2050
vn 0.0000 -0.9984 0.0573
vn 0.0000 -0.9374 0.3482
vn 0.0000 -0.0519 0.9987
vn 0.0000 0.9621 0.2726
vn 0.0000 0.9905 0.1376
vn 0.0000 -0.2094 0.9778
vn 0.0000 1.0000 0.0000
vn 0.0000 -1.0000 0.0000
vn 0.0000 -0.9808 0.1951
vn 0.0000 -0.1951 0.9808
vn 0.0000 -0.3827 0.9239
vn 0.0000 -0.9239 0.3827
vn 0.0000 0.0000 1.0000
usemtl Green_Light
s 1
f 31/1/1 23/2/1 19/3/2 29/4/2
f 33/5/3 25/6/3 20/7/4 30/8/4
f 33/5/3 28/9/5 22/10/5 25/6/3
f 29/4/2 19/3/2 26/11/6 34/12/6
f 31/13/7 27/14/8 21/15/8 23/16/7
f 34/12/6 26/11/6 22/17/9 28/18/9
f 36/19/10 35/20/10 24/21/10 32/22/10
f 21/15/8 27/14/8 32/22/10 24/21/10
usemtl Dirt_1
f 1/23/11 4/24/12 6/25/12 2/26/11
f 3/27/13 7/28/13 8/29/14 5/30/14
f 5/31/15 8/32/15 6/25/12 4/24/12
f 10/33/16 17/34/16 16/35/16 11/36/16
usemtl Dirt_2
f 13/37/16 12/38/16 15/39/16 14/40/16
f 10/33/16 9/41/16 18/42/16 17/34/16
usemtl Dirt_3
f 9/41/16 7/28/13 3/27/13 18/42/16
f 12/38/16 11/36/16 16/35/16 15/39/16
