# Blender v2.93.1 OBJ File: 'cube_grass_corner_single.blend'
# www.blender.org
mtllib cube_grass_corner_single.mtl
o Cube_Grass_Corner_Cube.279
v -0.848221 0.995956 -1.000001
v -1.099940 0.566632 -1.000001
v -1.099940 0.801033 -1.000001
v -1.020232 0.947225 -1.000001
v -0.355843 0.995956 -1.000000
v -1.020232 0.537025 -1.000001
v -1.116720 0.644971 -1.000001
v 0.999999 0.995956 -0.999999
v -0.848864 0.995909 0.848270
v -1.099940 0.801033 0.879508
v -0.872515 0.801033 1.099939
v -0.844490 0.527155 0.848270
v -1.099940 0.566632 0.879508
v -0.872515 0.566632 1.099939
v -1.116719 0.644971 0.895094
v -1.019855 0.947920 0.856113
v -1.054234 0.801033 1.044831
v -1.099940 0.801033 0.381801
v -0.888305 0.644971 1.116718
v -0.857709 0.947920 1.020243
v -0.848864 0.995909 0.355917
v -0.367594 0.801033 1.099939
v -0.346529 0.995956 0.848220
v -1.030449 0.537025 0.856113
v -0.849720 0.537025 1.020243
v -0.891754 0.527155 0.355917
v -0.346529 0.527155 0.848220
v -1.054234 0.566632 1.044831
v -1.099940 0.566632 0.381801
v -0.367594 0.566632 1.099939
v -1.070765 0.644971 1.061312
v -0.990502 0.910018 0.984115
v -1.116719 0.644971 0.394693
v -1.020520 0.947920 0.362438
v -0.380791 0.644971 1.116718
v -0.349131 0.947225 1.020231
v -0.350527 0.995956 0.355842
v -1.001096 0.544701 0.984115
v -1.031114 0.537025 0.362438
v -0.349131 0.537025 1.020231
v 1.000001 -1.000000 -0.999999
v -1.000000 -0.873585 0.873584
v -0.873585 -1.000000 0.873584
v -0.873585 -0.873585 0.999999
v -0.962974 -0.962974 0.873584
v -0.946571 -0.946571 0.946570
v -0.873585 -0.962974 0.962973
v -0.962974 -0.873585 0.962973
v 0.999999 -1.000000 0.873585
v 0.999999 -0.873585 1.000000
v 0.999999 -0.962974 0.962974
v -0.999999 -0.873585 -1.000001
v -0.873584 -1.000000 -1.000001
v -0.962973 -0.962974 -1.000001
v -1.000000 0.623989 0.873584
v -1.000000 0.281256 0.873584
v -1.000000 -0.024298 0.873584
v -1.000000 -0.327668 0.873584
v -1.000000 -0.623989 0.873584
v -0.962974 -0.623989 0.962973
v -0.962974 -0.327668 0.962973
v -0.962974 -0.024298 0.962973
v -0.962974 0.281256 0.962973
v -0.962974 0.623989 0.962973
v -0.873585 -0.623989 0.999999
v -0.873585 -0.327668 0.999999
v -0.873585 -0.024298 0.999999
v -0.873585 0.281256 0.999999
v -0.873585 0.623989 0.999999
v 0.999999 -0.623989 1.000000
v 0.999999 -0.327668 1.000000
v 0.999999 -0.024298 1.000000
v 0.999999 0.281256 1.000000
v 0.999999 0.623989 1.000000
v -0.999999 0.623989 -1.000001
v -0.999999 0.281256 -1.000001
v -0.999999 -0.024298 -1.000001
v -0.999999 -0.327668 -1.000001
v -0.999999 -0.623989 -1.000001
v 0.999999 0.801033 1.099940
v 0.999999 0.527155 0.848221
v 0.999999 0.995956 0.848221
v 0.999999 0.566632 1.099940
v 0.999999 0.947225 1.020231
v 0.999999 0.995956 0.355842
v 0.999999 0.537025 1.020231
v 0.999999 0.644971 1.116719
v -0.891753 0.527155 -1.000000
vt 0.378190 0.306026
vt 0.378199 0.222878
vt 0.459695 0.224256
vt 0.459681 0.306741
vt 0.457855 0.335886
vt 0.376144 0.335058
vt 0.354367 0.330599
vt 0.348978 0.307981
vt 0.348969 0.223811
vt 0.961003 0.647464
vt 0.961011 0.565580
vt 0.986943 0.567287
vt 0.986935 0.649615
vt 0.986965 0.678058
vt 0.961032 0.675755
vt 0.942959 0.667297
vt 0.936640 0.645540
vt 0.936647 0.564304
vt 0.684107 0.002687
vt 0.684107 0.227107
vt 0.459695 0.000716
vt 0.314182 0.692254
vt 0.314156 0.465166
vt 0.327191 0.466936
vt 0.327217 0.691853
vt 0.348969 0.000503
vt 0.378199 0.000000
vt 0.288214 0.383876
vt 0.288249 0.352651
vt 0.314181 0.350346
vt 0.314146 0.381699
vt 0.288223 0.466916
vt 0.263975 0.468005
vt 0.263850 0.384363
vt 0.270174 0.361649
vt 0.045488 0.304527
vt 0.127419 0.305458
vt 0.126992 0.334006
vt 0.044628 0.333064
vt 0.019490 0.327001
vt 0.014668 0.305691
vt 0.013885 0.224379
vt 0.037040 0.223346
vt 0.999971 0.647444
vt 0.999978 0.565560
vt 0.002563 0.310079
vt 0.001884 0.228105
vt 0.010308 0.337395
vt 1.000000 0.675735
vt 0.288249 0.691834
vt 0.348969 0.336551
vt 0.348374 0.350346
vt 0.123359 0.347767
vt 0.327182 0.383895
vt 0.327217 0.352671
vt 0.040282 0.346814
vt 0.348969 0.307998
vt 0.264000 0.689886
vt 0.936784 0.340159
vt 0.961032 0.338243
vt 0.684107 0.308605
vt 0.683348 0.337829
vt 0.000000 0.000516
vt 0.013818 0.000000
vt 0.986965 0.337829
vt 1.000000 0.338223
vt 0.035192 0.000020
vt 0.348969 0.661977
vt 0.348969 0.353379
vt 0.657198 0.359464
vt 0.657198 0.668062
vt 0.248964 0.658592
vt 0.263850 0.659467
vt 0.261135 0.671868
vt 0.248990 0.674183
vt 0.658084 0.343914
vt 0.670484 0.346487
vt 0.672790 0.358928
vt 0.687676 0.645964
vt 0.687650 0.661564
vt 0.675505 0.659257
vt 0.672790 0.646854
vt 0.687676 0.337829
vt 0.672790 0.338720
vt 0.349856 0.337829
vt 0.248964 0.350346
vt 0.263850 0.351221
vt 0.672790 0.667526
vt 0.778406 0.661620
vt 0.778432 0.646019
vt 0.828866 0.646050
vt 0.828840 0.661651
vt 0.107774 0.658678
vt 0.158208 0.658647
vt 0.158234 0.674238
vt 0.107800 0.674268
vt 0.107774 0.350432
vt 0.158208 0.350401
vt 0.778432 0.337885
vt 0.828866 0.337916
vt 0.936640 0.646117
vt 0.879662 0.646082
vt 0.879662 0.337947
vt 0.936640 0.337982
vt 0.729170 0.645989
vt 0.729170 0.337855
vt 0.936614 0.661717
vt 0.879637 0.661682
vt 0.729144 0.661590
vt 0.000000 0.658743
vt 0.056978 0.658709
vt 0.057004 0.674299
vt 0.000026 0.674334
vt 0.207470 0.658617
vt 0.207496 0.674208
vt 0.000000 0.350497
vt 0.056978 0.350462
vt 0.207470 0.350371
vn -0.1373 0.9810 0.1372
vn 0.0001 0.9906 0.1371
vn -0.0000 1.0000 0.0000
vn -0.1365 0.9906 -0.0000
vn -0.2703 0.9628 -0.0001
vn -0.6074 0.7821 0.1394
vn -0.5037 0.7087 0.4940
vn -0.1475 0.7788 0.6097
vn 0.0003 0.9624 0.2716
vn -0.9378 0.3182 0.1386
vn -0.9547 0.2977 0.0001
vn -0.9987 -0.0519 -0.0000
vn -0.9879 -0.0575 0.1443
vn -0.9622 -0.0576 0.2660
vn -0.9084 0.3149 0.2749
vn -0.8788 0.4772 0.0002
vn -0.0000 -0.0519 0.9987
vn -0.0000 -0.2094 0.9778
vn -0.0000 0.9621 0.2726
vn -0.0000 0.9905 0.1376
vn -0.1473 0.3154 0.9374
vn -0.2975 0.3099 0.9030
vn -0.2899 -0.0586 0.9553
vn -0.1575 -0.0579 0.9858
vn 0.0001 0.2982 0.9545
vn 0.0002 0.4783 0.8782
vn -0.0384 -0.9984 0.0413
vn 0.0000 -0.9984 0.0573
vn 0.0000 -0.9788 0.2050
vn -0.0376 -0.9785 0.2029
vn -0.1665 -0.9737 0.1557
vn -0.2234 -0.9739 0.0403
vn -0.2269 -0.9739 0.0003
vn -0.0670 -0.9978 0.0013
vn -0.9661 -0.2302 0.1170
vn -0.9778 -0.2094 0.0000
vn -0.3541 -0.9333 0.0602
vn -0.3839 -0.9234 -0.0005
vn -0.2067 -0.9558 0.2089
vn -0.9330 -0.2511 0.2579
vn -0.0000 0.2985 0.9544
vn -0.0000 -0.9374 0.3482
vn -0.1277 -0.2321 0.9643
vn -0.2808 -0.2544 0.9254
vn -0.0557 -0.9461 0.3191
vn -0.0000 0.4787 0.8780
vn -0.8788 0.4771 -0.0002
vn -0.9547 0.2977 -0.0001
vn -0.1367 0.9906 -0.0002
vn -0.2709 0.9626 -0.0003
vn -0.3705 -0.9288 -0.0015
vn -0.2239 -0.9746 -0.0009
vn -0.0735 -0.9973 -0.0003
vn 0.0000 -1.0000 0.0000
vn -0.0000 -0.9808 0.1951
vn -0.1794 -0.9673 0.1794
vn -0.1951 -0.9808 -0.0000
vn -0.9673 -0.1794 0.1794
vn -0.9194 -0.3600 0.1585
vn -0.8881 -0.3251 0.3251
vn -0.9194 -0.1585 0.3600
vn -0.1585 -0.9194 0.3600
vn -0.3251 -0.8881 0.3251
vn -0.3600 -0.9194 0.1585
vn -0.1794 -0.1794 0.9673
vn -0.3600 -0.1585 0.9194
vn -0.3251 -0.3251 0.8881
vn -0.1585 -0.3600 0.9194
vn -0.0000 -0.1951 0.9808
vn -0.0000 -0.3827 0.9239
vn -0.0000 -0.9239 0.3827
vn -0.9808 -0.1951 -0.0000
vn -0.9239 -0.3827 -0.0000
vn -0.3827 -0.9239 -0.0000
vn -0.3827 0.0000 0.9239
vn -0.1951 0.0000 0.9808
vn -0.9808 0.0000 0.1951
vn -0.9239 0.0000 0.3827
vn -1.0000 0.0000 -0.0000
vn -0.0000 0.0000 1.0000
usemtl Green_Light
s 1
f 9/1/1 23/2/2 37/3/3 21/4/4
f 9/1/1 21/4/4 34/5/5 16/6/6
f 9/1/1 16/6/6 32/7/7 20/8/8
f 9/1/1 20/8/8 36/9/9 23/2/2
f 10/10/10 18/11/11 33/12/12 15/13/13
f 10/10/10 15/13/13 31/14/14 17/15/15
f 10/10/10 17/15/15 32/16/7 16/17/6
f 10/10/10 16/17/6 34/18/16 18/11/11
f 8/19/3 5/20/3 37/3/3 85/21/3
f 87/22/17 35/23/17 30/24/18 83/25/18
f 84/26/19 82/27/20 23/2/2 36/9/9
f 11/28/21 17/29/22 31/30/23 19/31/24
f 11/28/21 19/31/24 35/23/17 22/32/25
f 11/28/21 22/32/25 36/33/26 20/34/8
f 11/28/21 20/34/8 32/35/7 17/29/22
f 12/36/27 27/37/28 40/38/29 25/39/30
f 12/36/27 25/39/30 38/40/31 24/41/32
f 12/36/27 24/41/32 39/42/33 26/43/34
f 13/44/35 15/13/13 33/12/12 29/45/36
f 13/46/37 29/47/38 39/42/33 24/41/32
f 13/46/37 24/41/32 38/40/31 28/48/39
f 13/44/35 28/49/40 31/14/14 15/13/13
f 80/50/41 22/32/25 35/23/17 87/22/17
f 86/51/29 83/52/42 30/53/42 40/38/29
f 14/54/43 19/31/24 31/30/23 28/55/44
f 14/56/45 28/48/39 38/40/31 25/39/30
f 14/56/45 25/39/30 40/38/29 30/53/42
f 14/54/43 30/24/18 35/23/17 19/31/24
f 86/51/29 40/38/29 27/37/28 81/57/28
f 84/58/46 36/33/26 22/32/25 80/50/41
f 23/2/2 82/27/20 85/21/3 37/3/3
f 34/18/16 4/59/47 3/60/48 18/11/11
f 34/5/5 21/4/4 1/61/49 4/62/50
f 39/42/33 29/47/38 2/63/51 6/64/52
f 18/11/11 3/60/48 7/65/12 33/12/12
f 33/12/12 7/65/12 2/66/36 29/45/36
f 39/42/33 6/64/52 88/67/53 26/43/34
f 37/3/3 5/20/3 1/61/49 21/4/4
usemtl Dirt_1
f 41/68/54 49/69/55 43/70/56 53/71/57
f 42/72/58 45/73/59 46/74/60 48/75/61
f 43/70/56 47/76/62 46/77/63 45/78/64
f 44/79/65 48/80/66 46/81/67 47/82/68
f 50/83/69 44/79/65 47/82/68 51/84/70
f 51/85/71 47/76/62 43/70/56 49/69/55
f 42/72/58 52/86/72 54/87/73 45/73/59
f 45/78/64 54/88/74 53/71/57 43/70/56
f 61/89/75 66/90/76 67/91/76 62/92/75
f 57/93/77 58/94/77 61/95/78 62/96/78
f 77/97/79 78/98/79 58/94/77 57/93/77
f 66/90/76 71/99/80 72/100/80 67/91/76
usemtl Dirt_2
f 69/101/76 68/102/76 73/103/80 74/104/80
f 66/90/76 65/105/76 70/106/80 71/99/80
f 64/107/75 63/108/75 68/102/76 69/101/76
f 61/89/75 60/109/75 65/105/76 66/90/76
f 55/110/77 56/111/77 63/112/78 64/113/78
f 58/94/77 59/114/77 60/115/78 61/95/78
f 75/116/79 76/117/79 56/111/77 55/110/77
f 78/98/79 79/118/79 59/114/77 58/94/77
usemtl Dirt_3
f 79/118/79 52/86/72 42/72/58 59/114/77
f 59/114/77 42/72/58 48/75/61 60/115/78
f 60/109/75 48/80/66 44/79/65 65/105/76
f 65/105/76 44/79/65 50/83/69 70/106/80
f 68/102/76 67/91/76 72/100/80 73/103/80
f 63/108/75 62/92/75 67/91/76 68/102/76
f 56/111/77 57/93/77 62/96/78 63/112/78
f 76/117/79 77/97/79 57/93/77 56/111/77
