# Blender v2.93.1 OBJ File: 'star.blend'
# www.blender.org
mtllib star.mtl
o Star_Cylinder.000
v 0.176747 -0.243926 0.347247
v -0.000385 0.301230 -0.347247
v 0.000000 0.822295 -0.000000
v 0.483332 -0.665251 0.000000
v -0.387092 0.126065 0.290628
v -0.387263 0.125539 -0.290628
v -0.262149 0.360817 0.000000
v -0.424166 -0.137820 -0.000000
v 0.387263 0.125538 0.290628
v 0.387092 0.126064 -0.290628
v 0.424166 -0.137820 -0.000000
v 0.262149 0.360817 0.000000
v 0.000277 0.407102 0.290628
v 0.239512 -0.329190 -0.290628
v -0.239065 -0.329515 -0.290628
v -0.000000 -0.445994 -0.000000
v -0.239513 -0.329190 0.290628
v -0.231634 0.319248 -0.267062
v -0.375201 -0.121644 -0.267062
v -0.232043 0.318950 0.267062
v 0.375201 -0.121644 0.267062
v 0.231634 0.319247 0.267062
v 0.375045 -0.122126 -0.267062
v -0.375045 -0.122125 0.267062
v 0.000253 -0.394428 0.267062
v -0.000253 -0.394428 -0.267062
v 0.232044 0.318950 -0.267062
v -0.782049 0.254103 0.000000
v 0.782049 0.254103 0.000000
v -0.483333 -0.665250 0.000000
vn -0.2011 0.9796 0.0003
vn -0.2011 0.9796 0.0005
vn -0.1980 0.9647 0.1736
vn -0.7384 -0.6743 -0.0003
vn -0.7384 -0.6743 -0.0005
vn -0.7272 -0.6641 -0.1736
vn 0.2011 0.9796 -0.0003
vn 0.2011 0.9796 -0.0005
vn 0.1980 0.9647 -0.1736
vn 0.7384 -0.6743 0.0003
vn 0.7384 -0.6743 0.0005
vn 0.7272 -0.6641 0.1736
vn 0.8695 0.4939 0.0003
vn 0.8695 0.4939 0.0005
vn 0.8563 0.4864 0.1736
vn -0.8695 0.4939 -0.0003
vn -0.8695 0.4939 -0.0005
vn -0.8563 0.4864 -0.1736
vn -0.4131 -0.9107 0.0003
vn -0.4131 -0.9107 0.0005
vn -0.4068 -0.8969 0.1736
vn 0.9938 0.1115 -0.0003
vn 0.9938 0.1115 -0.0005
vn 0.9787 0.1098 -0.1736
vn 0.4131 -0.9107 -0.0003
vn 0.4131 -0.9107 -0.0005
vn 0.4068 -0.8969 -0.1736
vn -0.9938 0.1115 0.0003
vn -0.9938 0.1115 0.0005
vn -0.9787 0.1098 0.1736
vn 0.1262 0.3087 0.9427
vn 0.1706 -0.2354 0.9568
vn 0.3981 0.1409 0.9064
vn 0.2134 0.2935 0.9318
vn -0.2575 -0.3347 0.9064
vn 0.0058 -0.5240 0.8517
vn 0.4961 -0.1677 0.8519
vn -0.3324 -0.0243 0.9428
vn -0.0672 0.0927 0.9934
vn -0.2832 -0.1757 -0.9428
vn -0.0003 0.2908 -0.9568
vn 0.2836 -0.1756 -0.9427
vn 0.0001 -0.1145 -0.9934
vn -0.4051 0.1194 -0.9064
vn -0.3451 -0.1123 -0.9318
vn 0.4049 0.1200 -0.9064
vn 0.3451 -0.1120 -0.9318
vn -0.3033 0.4274 -0.8517
vn 0.3028 0.4273 -0.8519
vn -0.3452 -0.1120 0.9318
vn -0.4332 0.4440 0.7843
vn -0.6111 -0.1042 0.7846
vn -0.6115 -0.1046 -0.7843
vn -0.4332 0.4435 -0.7846
vn -0.1980 0.9648 -0.1728
vn -0.7273 -0.6642 0.1728
vn 0.1980 0.9648 0.1728
vn 0.6115 -0.1046 0.7843
vn 0.4332 0.4435 0.7846
vn 0.4332 0.4440 -0.7843
vn 0.6111 -0.1042 -0.7846
vn 0.7273 -0.6642 -0.1728
vn 0.0003 0.5546 -0.8321
vn 0.8564 0.4865 -0.1728
vn -0.8564 0.4865 0.1728
vn 0.2884 0.5492 0.7843
vn -0.2879 0.5490 0.7846
vn 0.5562 -0.2748 -0.7843
vn 0.0898 -0.6134 -0.7846
vn -0.4069 -0.8970 -0.1728
vn 0.9788 0.1098 0.1728
vn 0.3262 -0.4485 0.8321
vn -0.0895 -0.6139 -0.7843
vn -0.5557 -0.2749 -0.7846
vn 0.4069 -0.8970 0.1728
vn -0.5562 -0.2748 0.7843
vn -0.0898 -0.6134 0.7846
vn -0.9788 0.1098 -0.1728
usemtl Gold
s 1
f 7//1 28//2 20//3
f 8//4 28//5 19//6
f 12//7 29//8 27//9
f 11//10 29//11 21//12
f 12//13 3//14 22//15
f 7//16 3//17 18//18
f 16//19 4//20 25//21
f 11//22 4//23 23//24
f 16//25 30//26 26//27
f 8//28 30//29 24//30
f 13//31 1//32 9//33 22//34
f 17//35 25//36 1//32
f 1//32 21//37 9//33
f 5//38 1//32 13//31 20//39
f 15//40 2//41 14//42 26//43
f 6//44 2//41 15//40 19//45
f 14//42 2//41 10//46 23//47
f 6//44 18//48 2//41
f 2//41 27//49 10//46
f 17//35 1//32 5//38 24//50
f 20//51 28//51 5//51
f 5//38 28//52 24//50
f 19//45 28//53 6//44
f 6//44 28//54 18//48
f 7//1 18//55 28//2
f 8//4 24//56 28//5
f 12//7 22//57 29//8
f 21//37 29//58 9//33
f 9//33 29//59 22//34
f 27//49 29//60 10//46
f 10//46 29//61 23//47
f 11//10 23//62 29//11
f 18//48 3//63 2//41
f 2//41 3//63 27//49
f 12//13 27//64 3//14
f 7//16 20//65 3//17
f 22//34 3//66 13//31
f 13//67 3//67 20//67
f 23//47 4//68 14//42
f 14//69 4//69 26//69
f 16//19 26//70 4//20
f 11//22 21//71 4//23
f 25//36 4//72 1//32
f 1//32 4//72 21//37
f 26//73 30//73 15//73
f 15//40 30//74 19//45
f 16//25 25//75 30//26
f 24//50 30//76 17//35
f 17//35 30//77 25//36
f 8//28 19//78 30//29
